<svg width="24" height="24" viewBox="0 0 24 24" fill="none" xmlns="http://www.w3.org/2000/svg">
<path d="M16.2757 4.06357C15.6728 4.00244 15.25 4.49798 15.25 4.99997V19C15.25 19.4142 15.5858 19.75 16 19.75C16.4142 19.75 16.75 19.4142 16.75 19L16.75 5.86342C16.7642 5.8745 16.7787 5.88598 16.7935 5.89786C17.1161 6.15696 17.4997 6.54231 18.0695 7.11721L19.4673 8.52759C19.7589 8.82179 20.2338 8.8239 20.528 8.53232C20.8222 8.24074 20.8243 7.76587 20.5327 7.47167L19.1044 6.03054C18.573 5.49435 18.1298 5.04717 17.7328 4.72832C17.3163 4.3939 16.8787 4.13952 16.3455 4.07156C16.3222 4.0686 16.299 4.06593 16.2757 4.06357Z" fill="#1B1D1F"/>
<path d="M8.75 4.99997C8.75 4.58576 8.41421 4.24997 8 4.24997C7.58579 4.24997 7.25 4.58576 7.25 4.99997L7.25 17.9363C7.23578 17.9252 7.22128 17.9137 7.20649 17.9018C6.88386 17.6427 6.50033 17.2574 5.93054 16.6825L4.53269 15.2721C4.24111 14.9779 3.76624 14.9758 3.47204 15.2674C3.17784 15.559 3.17573 16.0338 3.46731 16.328L4.89563 17.7692C5.42702 18.3053 5.87022 18.7525 6.26724 19.0714C6.68367 19.4058 7.12131 19.6602 7.6545 19.7281C8.30512 19.8111 8.75 19.2715 8.75 18.7486L8.75 4.99997Z" fill="#1B1D1F"/>
</svg>
