<svg width="300" height="128" viewBox="0 0 300 128" fill="none" xmlns="http://www.w3.org/2000/svg">
<path fill-rule="evenodd" clip-rule="evenodd" d="M290.171 46.7246C289.808 46.6728 289.464 46.6238 289.149 46.5722C282.335 45.4527 274.81 45.9405 267.678 47.2165C263.153 48.026 258.883 48.8389 254.786 50.5812C253.5 51.1283 251.829 51.7399 250.06 52.3876C248.906 52.8099 247.71 53.2475 246.552 53.6925C244.453 54.4992 242.459 55.3359 240.869 56.1903C240.236 56.5916 239.598 56.9896 238.952 57.3803C237.963 57.9795 236.84 58.5709 235.644 58.9493C235.056 59.1354 234.43 58.8084 234.244 58.2199C234.059 57.6313 234.385 57.003 234.972 56.8175C235.914 56.519 236.852 56.0377 237.757 55.492C238.333 55.0709 239.003 54.6613 239.735 54.2638C240.615 53.706 241.488 53.1384 242.368 52.567C242.587 52.4244 242.808 52.2816 243.028 52.1386C244.769 51.0092 246.539 49.8741 248.384 48.8084C249.912 47.9256 251.495 47.0537 253.099 46.171C256.674 44.2026 260.347 42.1808 263.712 39.8676C268.565 36.5317 272.553 32.7308 274.429 27.9309C275.269 25.7826 274.896 25.0476 274.638 24.7988C274.466 24.6325 274.158 24.4716 273.63 24.3857C273.104 24.3002 272.44 24.3026 271.66 24.3922C268.49 24.7562 264.249 26.4416 261.858 27.4606C256.11 29.9112 250.695 32.6815 245.353 35.8285C245.06 36.0009 244.752 36.1795 244.433 36.3642C243.475 36.9196 242.42 37.5307 241.399 38.1989C240.664 38.9598 239.668 39.9795 238.842 40.7806C238.316 41.291 237.801 41.7709 237.467 42.0168C237.39 42.0742 237.257 42.1686 237.103 42.2374C237.04 42.2652 236.854 42.3455 236.609 42.347C236.473 42.3479 236.267 42.3247 236.053 42.2071C235.822 42.0807 235.656 41.8866 235.56 41.6736C235.4 41.316 235.474 40.9956 235.492 40.92C235.521 40.7977 235.563 40.6973 235.592 40.6362C235.65 40.5086 235.727 40.3793 235.801 40.2629C236.697 38.8625 238.251 37.6232 239.78 36.5919C239.842 36.5502 239.904 36.5087 239.966 36.4674C240.127 36.2996 240.273 36.1478 240.397 36.0185C240.507 35.9025 240.618 35.7865 240.729 35.6705C244.365 31.8652 247.994 28.0674 249.997 23.7467C251.37 20.7851 252.272 17.8243 252.567 14.7934C252.553 14.8069 252.54 14.8206 252.526 14.8344C244.447 22.9793 236.762 31.1556 231.825 40.7378C229.646 44.9662 227.505 49.3773 226.116 53.7031C226.045 53.9234 225.973 54.145 225.899 54.3682C225.712 54.9364 225.522 55.5148 225.356 56.107C225.125 56.9287 224.972 57.6782 224.957 58.3043C224.954 58.3909 224.949 58.501 224.931 58.6117C224.922 58.6653 224.905 58.7548 224.869 58.8565C224.842 58.9297 224.753 59.1639 224.517 59.359C224.383 59.4708 224.195 59.5731 223.96 59.6072C223.727 59.6413 223.521 59.5977 223.366 59.5334C223.095 59.4216 222.943 59.2355 222.897 59.1762C222.786 59.0354 222.723 58.8895 222.701 58.8375C222.597 58.5927 222.486 58.1846 222.392 57.8342C222.358 57.7062 222.323 57.5776 222.289 57.4496C222.1 56.737 221.917 56.0483 221.774 55.7236C220.181 52.1058 217.827 48.7025 215.329 45.4304C212.751 42.054 209.359 37.9253 205.224 34.9915C201.111 32.0732 196.353 30.398 190.958 31.74C188.293 32.403 187.038 33.5092 186.498 34.6466C185.942 35.8162 186.002 37.3085 186.589 39.0189C187.442 41.5051 189.288 44.0868 191.022 45.9671C193.222 46.0969 195.359 46.4143 197.335 46.8916C203.387 48.3533 208.35 50.9415 212.988 54.3076C213.003 54.3188 213.028 54.3366 213.061 54.3606C213.421 54.6185 214.773 55.5895 215.976 56.5972C216.624 57.1394 217.286 57.7392 217.726 58.2707C217.931 58.5183 218.179 58.8571 218.297 59.2366C218.359 59.4373 218.416 59.7424 218.321 60.084C218.216 60.4618 217.966 60.7379 217.677 60.9028C216.867 61.3645 215.898 61.3774 215.057 61.2678C214.187 61.1538 213.263 60.881 212.406 60.573C211.543 60.2628 210.704 59.9006 210.003 59.5876C209.808 59.501 209.628 59.4194 209.461 59.345C209.005 59.1393 208.658 58.9828 208.415 58.8912C202.444 56.6313 196.244 53.4153 191.496 49.5076C191.043 49.1354 190.546 48.6801 190.029 48.1584C186.044 48.0195 181.902 48.5391 178.255 49.8821C175.542 50.8815 174.01 52.1361 173.046 53.6232C172.059 55.147 171.589 57.0315 171.227 59.4702C170.843 62.0504 171.519 64.0531 172.865 65.6712C174.244 67.3297 176.377 68.6398 178.974 69.6532C184.171 71.6817 190.835 72.377 195.709 72.5838C202.537 72.8728 209.634 72.339 216.54 71.2239L216.617 71.211C217.07 71.1384 217.52 71.0651 217.967 70.9891C218.019 70.9567 218.071 70.9237 218.122 70.8902C219.727 69.869 221.802 68.5482 224.018 68.2005C224.357 68.1468 224.701 68.1318 225.019 68.1815C225.275 68.2217 225.794 68.3475 226.112 68.8299C226.53 69.4626 226.263 70.0987 226.031 70.41C225.808 70.7091 225.491 70.9304 225.19 71.0981C223.188 72.2099 220.917 72.7398 218.782 73.1182C208.588 79.5953 199.439 90.1299 197.531 100.418C197.21 102.151 197.279 103.582 197.797 104.591C198.271 105.513 199.236 106.299 201.273 106.524C203.491 106.769 206 106.253 208.522 105.333C211.032 104.419 213.468 103.139 215.511 101.947C224.893 96.4701 233.221 88.7537 237.989 80.0313C238.009 79.9933 238.03 79.9553 238.051 79.9161C238.126 79.7457 238.202 79.5757 238.28 79.4069C238.56 78.7977 238.733 78.4366 238.821 78.2644C238.841 78.2264 238.87 78.1705 238.901 78.1191C238.906 78.1118 238.911 78.1029 238.918 78.0917C238.926 78.08 238.935 78.0654 238.946 78.0504L238.947 78.0487C238.958 78.0319 239.013 77.9548 239.097 77.8743L239.098 77.8732C239.13 77.843 239.265 77.7161 239.48 77.6367C239.603 77.592 239.812 77.5395 240.068 77.5875C240.349 77.6395 240.575 77.7916 240.728 77.9788C240.966 78.2706 240.977 78.5847 240.979 78.6401V78.644C240.983 78.744 240.973 78.8228 240.968 78.8558C240.951 78.9659 240.919 79.0565 240.916 79.0643C240.907 79.0911 240.898 79.1163 240.891 79.1353L240.889 79.1403C240.873 79.1811 240.854 79.2264 240.835 79.2717C240.703 79.5852 240.385 80.2744 240.059 80.8926C238.948 83.4314 238.135 86.1893 237.791 88.7683C237.364 91.9683 237.278 95.2029 238.696 97.6528C239.577 99.1732 241.19 100.412 243.218 101.337C245.233 102.257 247.561 102.821 249.722 103.05C254.97 103.608 261.366 103.55 266.008 100.939C268.201 99.7058 269.48 98.1223 270.129 96.4158C270.784 94.6937 270.828 92.7608 270.396 90.8051C269.282 85.76 266.147 81.3146 261.987 77.4422C257.83 73.5726 252.713 70.3357 247.767 67.7025C247.288 67.4476 246.593 67.1256 245.797 66.7774C243.595 65.9585 241.417 65.0978 239.252 64.2079C239.07 64.133 238.928 64.0732 238.825 64.0279C238.774 64.0061 238.726 63.9843 238.684 63.9648C238.676 63.9609 238.572 63.9139 238.475 63.8463L238.473 63.8451C238.452 63.8301 238.347 63.758 238.247 63.6361C238.203 63.583 238.06 63.4041 238.009 63.1241C237.94 62.7395 238.074 62.331 238.392 62.0649C238.622 61.8721 238.861 61.8301 238.932 61.819C239.03 61.8027 239.11 61.8039 239.149 61.8055C239.229 61.8083 239.292 61.819 239.315 61.8234C239.402 61.8391 239.483 61.8648 239.504 61.8715C239.582 61.8955 239.687 61.9319 239.805 61.9738C240.285 62.1448 241.211 62.4947 242.303 62.9234C243.631 63.4444 245.25 64.0995 246.629 64.7015C251.476 66.5013 256.423 68.0842 261.601 69.3145C268.833 71.0322 276.182 71.3798 283.952 70.6258L284.049 70.6163C285.556 70.4704 288.46 70.1893 291.132 69.5459C292.5 69.2161 293.748 68.8053 294.694 68.3011C295.671 67.7807 296.133 67.2665 296.27 66.83C296.329 66.6449 296.314 66.3459 296.124 65.9619C295.936 65.5829 295.636 65.2476 295.348 65.0514C292.824 63.3387 289.435 62.0716 286.197 61.1985C279.721 59.4518 272.511 58.7397 265.481 59.0359C264.823 59.0633 263.745 59.1192 262.642 59.1801C261.479 59.2947 260.311 59.3808 259.144 59.4216C259.011 59.4261 258.905 59.4294 258.827 59.4305C258.805 59.4311 258.657 59.4361 258.538 59.4205H258.537C258.517 59.4177 258.422 59.4054 258.311 59.3657L258.31 59.3652C258.267 59.3501 258.092 59.288 257.922 59.1287C257.835 59.0382 257.674 58.79 257.613 58.6307C257.574 58.4356 257.596 58.0555 257.653 57.8806C257.797 57.5351 258.064 57.3786 258.113 57.3496L258.116 57.3473C258.203 57.2959 258.278 57.268 258.31 57.2568C258.378 57.2322 258.435 57.2199 258.453 57.216C258.52 57.2014 258.586 57.1947 258.602 57.1925H258.605C258.662 57.1858 258.74 57.1797 258.823 57.1729C259.164 57.1461 259.834 57.1036 260.623 57.0567C261.198 57.022 261.843 56.9851 262.482 56.9499C264.465 56.7526 266.452 56.4675 268.469 56.178C269.287 56.0606 270.111 55.9427 270.941 55.8293C271.123 55.8045 271.304 55.7798 271.486 55.7551C277.783 54.897 283.935 54.0586 289.945 52.1565C290.059 52.1204 290.184 52.0816 290.318 52.0399C291.264 51.7456 292.667 51.309 293.884 50.712C294.58 50.3703 295.134 50.0138 295.486 49.662C295.834 49.3143 295.87 49.0943 295.857 48.9657C295.829 48.7021 295.689 48.4394 295.307 48.1552C294.907 47.8569 294.316 47.5974 293.575 47.3795C292.454 47.0499 291.231 46.8756 290.171 46.7246ZM277.121 57.2193C281.635 56.5413 286.158 55.6997 290.616 54.2885C290.717 54.2565 290.833 54.2207 290.961 54.181C291.892 53.8923 293.478 53.4006 294.864 52.72C295.652 52.3338 296.456 51.849 297.06 51.2453C297.669 50.6375 298.186 49.7877 298.075 48.7315C297.964 47.6739 297.362 46.9 296.638 46.3606C295.933 45.8354 295.055 45.4846 294.203 45.2342C292.909 44.8537 291.433 44.644 290.354 44.4909C290.033 44.4452 289.746 44.4045 289.51 44.3658C282.361 43.1912 274.563 43.7135 267.286 45.0155C262.778 45.8218 258.274 46.6693 253.915 48.5229C253.413 48.7367 252.858 48.9571 252.264 49.1851C252.853 48.8585 253.452 48.5291 254.056 48.1965C257.676 46.2026 261.515 44.0888 264.973 41.7115C269.96 38.2841 274.387 34.1674 276.506 28.7467C277.41 26.4354 277.492 24.4493 276.185 23.1881C275.575 22.5994 274.782 22.3081 273.987 22.1787C273.187 22.0488 272.303 22.068 271.406 22.1709C267.869 22.5771 263.344 24.3978 260.986 25.4031C256.051 27.5068 251.361 29.8411 246.758 32.4386C248.832 30.036 250.729 27.4742 252.02 24.6888C253.528 21.4353 254.535 18.108 254.82 14.6425C254.865 14.0925 254.884 13.575 254.827 13.1577C254.799 12.9502 254.741 12.6819 254.599 12.4272C254.442 12.1449 254.161 11.8531 253.729 11.7401C253.337 11.6378 252.99 11.7288 252.769 11.8164C252.541 11.9068 252.333 12.0385 252.155 12.1684C251.798 12.4286 251.391 12.8074 250.945 13.2579C242.874 21.3936 234.956 29.7879 229.843 39.7118C227.659 43.9514 225.442 48.5029 223.993 53.0182C223.932 53.2079 223.865 53.4106 223.796 53.6225C223.725 53.8378 223.651 54.0627 223.577 54.293C221.885 50.6278 219.511 47.2293 217.1 44.0715C214.506 40.6735 210.943 36.3095 206.513 33.1666C202.061 30.0081 196.642 28.0226 190.421 29.57C187.365 30.3302 185.408 31.7393 184.483 33.6857C183.574 35.6 183.798 37.7598 184.48 39.7461C185.224 41.9163 186.585 44.0851 188.034 45.9082C184.441 45.9789 180.793 46.5656 177.486 47.7835C174.435 48.9072 172.461 50.421 171.175 52.4055C169.913 54.3534 169.391 56.6436 169.021 59.141C168.542 62.3578 169.403 65.0005 171.151 67.1033C172.867 69.1658 175.387 70.6526 178.165 71.7364C183.716 73.9035 190.682 74.6083 195.615 74.8174C201.574 75.07 207.711 74.7106 213.738 73.8985C204.824 80.612 197.148 90.2534 195.338 100.01C194.982 101.93 194.961 103.954 195.814 105.615C196.712 107.362 198.444 108.461 201.029 108.746C203.73 109.045 206.611 108.409 209.285 107.435C211.971 106.456 214.536 105.103 216.632 103.879C223.95 99.6075 230.706 93.9777 235.728 87.5033C235.672 87.8281 235.623 88.1512 235.58 88.472C235.151 91.6882 234.937 95.6132 236.768 98.7746C237.966 100.846 240.034 102.341 242.293 103.373C244.565 104.409 247.134 105.024 249.486 105.274C254.804 105.839 261.811 105.864 267.099 102.889C269.71 101.421 271.363 99.447 272.213 97.2123C273.056 94.9939 273.077 92.6021 272.574 90.3221C271.328 84.6773 267.857 79.8552 263.504 75.8039C261.344 73.7923 258.949 71.9561 256.47 70.2887C257.99 70.7175 259.527 71.1194 261.087 71.4899C268.593 73.273 276.192 73.6251 284.166 72.8515L284.288 72.8398C285.793 72.6939 288.827 72.4005 291.653 71.7197C293.102 71.3709 294.555 70.9064 295.74 70.2759C296.894 69.6616 297.995 68.7818 298.398 67.5024C298.685 66.5896 298.472 65.6763 298.122 64.9681C297.769 64.2554 297.216 63.6199 296.598 63.2001C293.777 61.2857 290.116 59.9398 286.776 59.0393C283.681 58.2048 280.432 57.5994 277.121 57.2193ZM258.849 59.4149C258.849 59.4149 258.849 59.4149 258.849 59.4149C258.842 59.4155 258.84 59.416 258.841 59.4155M239.638 61.9436C239.63 61.9397 239.625 61.9374 239.624 61.9369C239.623 61.9363 239.627 61.9386 239.638 61.9436C239.638 61.9436 239.638 61.9436 239.638 61.9436ZM193.803 48.4913C198.185 51.8846 203.756 54.7378 209.203 56.7996C209.515 56.9175 209.958 57.117 210.442 57.335C210.595 57.4038 210.752 57.4742 210.91 57.5452C211.598 57.8521 212.376 58.1869 213.159 58.4686C213.95 58.7531 214.703 58.9666 215.345 59.0505C215.361 59.0527 215.376 59.0544 215.39 59.0566C215.144 58.8246 214.858 58.5737 214.546 58.3132C213.414 57.3658 212.136 56.4463 211.763 56.178C211.726 56.1517 211.698 56.1316 211.68 56.1188C207.228 52.8875 202.527 50.4455 196.812 49.0652C195.845 48.8316 194.837 48.6392 193.803 48.4913ZM236.118 40.2356C236.118 40.2355 236.119 40.2346 236.122 40.2329C236.119 40.2349 236.117 40.2357 236.118 40.2356Z" fill="#7F6AFF"/>
<path d="M246.537 76.6235C236.416 80.0705 224.527 81.4495 221.48 75.2445C218.631 69.3347 218.828 58.8941 219.024 51.9996C219.024 50.5221 219.122 49.1432 219.122 47.9612L219.417 40.0816L211.556 39.7861L211.261 47.7643V47.8628C211.261 49.0447 211.261 50.3251 211.163 51.8025C211.065 54.3634 211.065 57.3184 211.065 60.273C210.967 66.7736 208.117 73.2748 205.464 76.0327C204.187 77.3127 203.204 77.7067 200.747 78.1992C187.188 81.056 177.853 76.3278 174.414 70.3196C175.101 70.2212 175.887 70.1229 176.575 70.1229C201.534 67.4634 205.661 62.5384 206.447 58.5989C206.741 57.1211 206.84 53.28 201.534 50.3251C194.262 46.2868 178.639 44.5139 171.466 51.2116C167.83 54.6589 165.669 58.8941 165.177 63.2282C163.212 63.4249 161.443 63.5233 159.773 63.6222C160.657 57.0227 160.166 49.6356 156.039 47.1733C150.831 44.0214 137.369 51.3101 132.751 55.3484C127.936 59.5838 128.133 63.1298 129.115 65.3947C130.589 68.7439 134.52 71.6985 149.554 71.7969C149.259 72.4867 148.964 73.0775 148.669 73.6683C146.704 77.3127 144.346 79.184 141.693 79.184C130.687 79.184 127.936 71.1077 125.185 59.7806C124.693 57.8108 124.3 55.9395 123.711 54.2649C122.827 51.4086 119.781 50.0297 119.191 49.7341C115.85 48.3552 112.411 49.6356 110.151 53.083C108.382 55.8409 107.596 59.0914 107.105 61.8493C106.712 63.819 106.417 65.9861 106.221 68.6455C106.122 69.2364 106.122 69.8272 106.122 70.5169C106.122 71.6002 106.024 72.585 105.729 73.2748C105.336 74.1613 104.55 75.0472 103.469 75.737C97.7704 79.4797 88.0421 80.1695 81.852 78.8889C76.5457 77.8051 74.4825 74.4564 73.7944 71.3045C81.262 71.6985 94.2329 71.4034 100.914 65.8877C103.666 63.6222 105.14 60.6671 105.336 57.3184C105.631 53.28 102.88 48.2567 94.331 47.5672C83.1295 46.6808 66.818 53.477 65.7373 66.3801C64.8529 76.8202 70.3555 84.6014 80.1814 86.5717C82.5396 87.0641 85.1927 87.2609 87.944 87.2609C94.7241 87.2609 102.192 85.7836 107.596 82.336C109.954 80.8587 111.723 78.7905 112.706 76.5251C113.59 74.4564 113.688 72.4867 113.786 70.812C113.786 70.3196 113.786 69.8272 113.885 69.4331C114.081 67.0693 114.376 65.1979 114.671 63.4249C115.064 61.3568 115.457 59.2881 116.341 57.8108C116.636 58.993 117.03 60.3714 117.324 61.7509C119.584 71.3045 123.416 87.1625 141.496 87.1625C148.768 87.1625 154.761 81.5484 157.906 71.6985C160.362 71.6002 163.114 71.4034 165.963 71.2061C166.258 72.0926 166.651 72.8807 167.044 73.7672C171.662 82.6316 184.24 89.822 202.123 86.0787C205.071 85.4879 208.019 84.6014 210.868 81.6468C211.949 80.563 212.834 79.283 213.718 77.8051C213.816 78.1008 214.013 78.3965 214.111 78.7905C216.961 84.6014 222.856 87.5566 231.11 87.5566C236.121 87.5566 242.116 86.4728 248.699 84.2073L246.537 76.6235ZM88.7303 55.6439C94.2329 54.6589 97.4754 55.9395 97.7704 56.5303C97.7704 56.5303 97.7704 56.6286 97.7704 56.7276C97.6717 57.9092 97.1804 58.8941 96.0998 59.7806C92.1691 63.0309 82.6377 63.7206 74.9737 63.4249C77.5282 59.2881 83.3258 56.5303 88.7303 55.6439ZM151.912 64.0157C141.987 64.1147 138.254 63.0309 136.976 62.4401C139.138 59.5838 148.08 55.0529 152.01 54.3634C152.403 56.1362 152.501 59.8789 151.912 64.0157ZM176.87 57.1211C178.443 55.6439 181.881 54.7574 185.812 54.7574C186.795 54.7574 187.875 54.8559 188.956 54.9544C193.28 55.4469 196.424 56.6286 197.996 57.5151C196.129 58.5989 190.627 60.8644 175.789 62.4401C175.003 62.5384 174.217 62.6368 173.431 62.7357C173.922 60.6671 175.101 58.7957 176.87 57.1211Z" fill="white"/>
<path d="M52.373 68.4806C54.633 66.4125 56.3035 64.2454 57.3842 62.2757C62.0024 54.1005 60.6268 45.6299 58.6617 41.8871L58.5636 41.6901C58.3667 41.2961 53.7487 34.106 45.3965 34.106C45.2983 34.106 45.2 34.106 45.2 34.106C39.5991 34.2044 33.9983 37.5533 28.4957 43.9555V35.9774H20.6348V70.1552C20.34 70.2536 20.0452 70.352 19.7504 70.4509C10.7104 73.2088 0 78.3305 0 87.1949H7.86089C7.86089 84.437 12.9704 80.891 20.6348 78.3305V87.1949H28.4957V76.9515C35.3739 76.4591 40.7783 75.0802 45.0035 73.2088C50.113 75.9667 56.9911 81.2851 56.9911 87.1949H64.8524C64.8524 78.5272 57.7773 72.125 52.373 68.4806ZM28.4957 57.6464C36.553 44.251 42.4487 42.084 45.2 41.9856C48.8357 41.8871 51.3904 45.2359 51.7835 45.7284C52.7661 47.6983 53.3556 53.3126 50.5061 58.3356C47.0669 64.5411 39.4026 68.1855 28.3974 69.072V57.6464H28.4957Z" fill="white"/>
</svg>
