<svg width="141" height="60" viewBox="0 0 141 60" fill="none" xmlns="http://www.w3.org/2000/svg">
<g clip-path="url(#clip0_237_2174)">
<path fill-rule="evenodd" clip-rule="evenodd" d="M136.342 21.9021C136.172 21.8779 136.01 21.8549 135.862 21.8307C132.661 21.3059 129.124 21.5346 125.773 22.1327C123.647 22.5122 121.641 22.8932 119.716 23.7099C119.112 23.9664 118.327 24.2531 117.495 24.5567C116.953 24.7546 116.391 24.9598 115.847 25.1684C114.861 25.5465 113.924 25.9387 113.177 26.3392C112.879 26.5273 112.579 26.7139 112.276 26.897C111.811 27.1779 111.284 27.4551 110.722 27.6325C110.446 27.7197 110.151 27.5664 110.064 27.2905C109.977 27.0146 110.13 26.7202 110.406 26.6332C110.849 26.4933 111.289 26.2677 111.715 26.0118C111.985 25.8145 112.3 25.6225 112.644 25.4361C113.057 25.1747 113.468 24.9086 113.881 24.6407C113.984 24.5739 114.088 24.507 114.191 24.44C115.01 23.9105 115.841 23.3785 116.708 22.8789C117.426 22.4651 118.17 22.0564 118.923 21.6427C120.603 20.7199 122.329 19.7722 123.91 18.6879C126.19 17.1242 128.064 15.3425 128.946 13.0926C129.34 12.0856 129.165 11.7411 129.044 11.6244C128.963 11.5465 128.818 11.471 128.57 11.4308C128.323 11.3907 128.011 11.3918 127.645 11.4338C126.155 11.6044 124.162 12.3945 123.039 12.8722C120.338 14.0209 117.794 15.3194 115.284 16.7946C115.146 16.8754 115.001 16.9591 114.852 17.0457C114.401 17.306 113.906 17.5925 113.426 17.9057C113.081 18.2624 112.612 18.7404 112.224 19.1159C111.977 19.3551 111.735 19.5801 111.579 19.6954C111.542 19.7223 111.479 19.7665 111.407 19.7987C111.378 19.8118 111.29 19.8494 111.175 19.8501C111.111 19.8505 111.015 19.8397 110.914 19.7845C110.805 19.7253 110.727 19.6343 110.682 19.5345C110.607 19.3669 110.642 19.2167 110.65 19.1812C110.664 19.1239 110.684 19.0769 110.697 19.0482C110.725 18.9884 110.761 18.9278 110.796 18.8732C111.216 18.2168 111.947 17.6358 112.665 17.1524C112.694 17.1329 112.723 17.1134 112.753 17.0941C112.828 17.0154 112.897 16.9443 112.955 16.8837C113.007 16.8293 113.059 16.7749 113.111 16.7205C114.82 14.9368 116.525 13.1566 117.466 11.1313C118.111 9.74301 118.535 8.35512 118.673 6.93438C118.667 6.94072 118.661 6.94714 118.654 6.95361C114.858 10.7715 111.247 14.6042 108.927 19.0958C107.904 21.0779 106.897 23.1456 106.245 25.1733C106.212 25.2766 106.177 25.3805 106.143 25.4851C106.055 25.7514 105.966 26.0225 105.888 26.3001C105.779 26.6853 105.707 27.0367 105.7 27.3301C105.699 27.3707 105.696 27.4223 105.688 27.4742C105.684 27.4994 105.676 27.5413 105.659 27.589C105.646 27.6233 105.604 27.7331 105.494 27.8245C105.43 27.8769 105.342 27.9249 105.232 27.9408C105.122 27.9568 105.026 27.9364 104.953 27.9063C104.825 27.8539 104.754 27.7666 104.732 27.7388C104.68 27.6728 104.651 27.6044 104.64 27.5801C104.592 27.4653 104.539 27.274 104.495 27.1098C104.479 27.0498 104.463 26.9895 104.447 26.9295C104.358 26.5954 104.272 26.2726 104.205 26.1204C103.456 24.4246 102.35 22.8293 101.176 21.2955C99.965 19.7128 98.3715 17.7775 96.4284 16.4022C94.4956 15.0343 92.2604 14.2491 89.7252 14.8781C88.4728 15.1889 87.8832 15.7074 87.6294 16.2406C87.3684 16.7888 87.3964 17.4884 87.6723 18.2901C88.0732 19.4555 88.9404 20.6657 89.7553 21.547C90.7892 21.6079 91.7929 21.7567 92.7215 21.9804C95.5651 22.6656 97.8972 23.8788 100.076 25.4567C100.084 25.4619 100.095 25.4703 100.111 25.4815C100.28 25.6024 100.915 26.0576 101.48 26.5299C101.785 26.7841 102.096 27.0652 102.303 27.3144C102.399 27.4305 102.515 27.5892 102.571 27.7671C102.6 27.8612 102.627 28.0043 102.582 28.1643C102.533 28.3415 102.416 28.4709 102.28 28.5482C101.899 28.7646 101.444 28.7706 101.049 28.7193C100.64 28.6658 100.206 28.538 99.8031 28.3936C99.3972 28.2482 99.0034 28.0784 98.6738 27.9317C98.5821 27.8911 98.4975 27.8528 98.4194 27.818C98.2048 27.7215 98.0418 27.6482 97.9279 27.6052C95.1223 26.5459 92.2087 25.0384 89.978 23.2067C89.7652 23.0322 89.5318 22.8188 89.2887 22.5743C87.4163 22.5091 85.4699 22.7527 83.7566 23.3822C82.4817 23.8507 81.7617 24.4388 81.3089 25.1359C80.8449 25.8501 80.6243 26.7335 80.454 27.8767C80.2737 29.0861 80.5913 30.0249 81.2238 30.7834C81.8717 31.5608 82.8742 32.1749 84.0943 32.6499C86.5363 33.6008 89.6675 33.9267 91.9575 34.0236C95.1658 34.1591 98.5004 33.9089 101.745 33.3862L101.781 33.3801C101.994 33.3461 102.206 33.3118 102.416 33.2761C102.44 33.2609 102.465 33.2455 102.489 33.2298C103.243 32.7511 104.218 32.1319 105.259 31.969C105.418 31.9438 105.58 31.9367 105.729 31.9601C105.85 31.9789 106.093 32.0379 106.243 32.264C106.439 32.5606 106.314 32.8588 106.205 33.0047C106.1 33.1449 105.951 33.2486 105.81 33.3272C104.869 33.8484 103.802 34.0967 102.799 34.2741C98.0088 37.3103 93.7103 42.2484 92.8137 47.0712C92.6628 47.8834 92.695 48.5541 92.9384 49.027C93.1611 49.4594 93.6147 49.8275 94.5721 49.9331C95.6141 50.0481 96.7931 49.806 97.9782 49.375C99.1575 48.9463 100.302 48.3464 101.262 47.7875C105.67 45.2203 109.583 41.6033 111.824 37.5146C111.833 37.4968 111.843 37.479 111.853 37.4607C111.888 37.3808 111.924 37.3011 111.96 37.222C112.092 36.9364 112.173 36.7671 112.215 36.6864C112.224 36.6686 112.237 36.6424 112.252 36.6183C112.254 36.6149 112.257 36.6107 112.26 36.6055C112.264 36.6 112.268 36.5932 112.273 36.5861L112.274 36.5853C112.279 36.5774 112.305 36.5413 112.344 36.5036L112.345 36.503C112.36 36.4889 112.423 36.4294 112.524 36.3922C112.582 36.3712 112.68 36.3466 112.801 36.3691C112.932 36.3935 113.039 36.4648 113.11 36.5526C113.223 36.6893 113.228 36.8366 113.229 36.8625V36.8643C113.23 36.9112 113.226 36.9482 113.223 36.9636C113.216 37.0153 113.2 37.0577 113.199 37.0614C113.195 37.0739 113.19 37.0857 113.187 37.0946L113.186 37.097C113.179 37.1161 113.17 37.1374 113.161 37.1586C113.099 37.3056 112.949 37.6286 112.796 37.9184C112.274 39.1084 111.892 40.4012 111.73 41.6101C111.53 43.1101 111.49 44.6264 112.156 45.7747C112.57 46.4874 113.327 47.0683 114.28 47.5019C115.227 47.9329 116.321 48.1973 117.336 48.3047C119.802 48.5662 122.808 48.5392 124.989 47.3153C126.019 46.7371 126.62 45.9948 126.925 45.1949C127.233 44.3877 127.253 43.4816 127.051 42.5649C126.527 40.2 125.054 38.1162 123.099 36.301C121.146 34.4871 118.742 32.9698 116.418 31.7355C116.193 31.616 115.867 31.4651 115.492 31.3019C114.457 30.9181 113.434 30.5146 112.417 30.0974C112.332 30.0623 112.265 30.0343 112.216 30.0131C112.192 30.0029 112.17 29.9926 112.15 29.9835C112.146 29.9816 112.097 29.9596 112.052 29.9279L112.051 29.9274C112.041 29.9203 111.992 29.8865 111.945 29.8294C111.924 29.8045 111.857 29.7207 111.833 29.5894C111.8 29.4091 111.864 29.2176 112.013 29.0929C112.121 29.0025 112.234 28.9829 112.267 28.9776C112.313 28.97 112.35 28.9705 112.368 28.9713C112.406 28.9726 112.436 28.9776 112.447 28.9797C112.487 28.9871 112.525 28.9991 112.535 29.0022C112.572 29.0135 112.622 29.0305 112.677 29.0502C112.902 29.1304 113.338 29.2944 113.851 29.4953C114.475 29.7395 115.235 30.0466 115.883 30.3288C118.161 31.1725 120.485 31.9145 122.918 32.4912C126.316 33.2963 129.77 33.4593 133.42 33.1058L133.466 33.1014C134.174 33.033 135.538 32.9012 136.794 32.5996C137.436 32.445 138.023 32.2525 138.467 32.0161C138.927 31.7722 139.144 31.5312 139.208 31.3265C139.236 31.2398 139.229 31.0996 139.139 30.9196C139.051 30.742 138.91 30.5848 138.775 30.4928C137.589 29.69 135.997 29.096 134.475 28.6868C131.432 27.868 128.044 27.5342 124.741 27.6731C124.432 27.6859 123.926 27.7121 123.407 27.7407C122.861 27.7944 122.312 27.8347 121.764 27.8539C121.701 27.856 121.651 27.8575 121.615 27.8581C121.605 27.8583 121.535 27.8607 121.479 27.8533H121.478C121.469 27.852 121.425 27.8463 121.372 27.8277L121.372 27.8274C121.352 27.8203 121.269 27.7912 121.189 27.7166C121.148 27.6741 121.073 27.5578 121.044 27.4831C121.026 27.3917 121.037 27.2135 121.063 27.1315C121.131 26.9696 121.256 26.8962 121.279 26.8826L121.281 26.8815C121.322 26.8574 121.357 26.8443 121.372 26.8391C121.404 26.8276 121.431 26.8218 121.439 26.82C121.471 26.8132 121.501 26.81 121.509 26.809H121.51C121.537 26.8058 121.574 26.8029 121.613 26.7998C121.773 26.7872 122.088 26.7673 122.459 26.7453C122.729 26.7291 123.032 26.7118 123.332 26.6953C124.264 26.6028 125.197 26.4691 126.145 26.3334C126.53 26.2784 126.917 26.2231 127.307 26.17C127.392 26.1584 127.477 26.1468 127.563 26.1352C130.521 25.733 133.412 25.34 136.236 24.4483C136.29 24.4314 136.348 24.4132 136.411 24.3937C136.856 24.2557 137.515 24.0511 138.087 23.7712C138.414 23.6111 138.674 23.4439 138.839 23.279C139.003 23.1161 139.02 23.0129 139.014 22.9527C139.001 22.8291 138.935 22.706 138.756 22.5727C138.568 22.4329 138.29 22.3113 137.942 22.2091C137.415 22.0546 136.84 21.9729 136.342 21.9021ZM130.21 26.8215C132.331 26.5037 134.457 26.1092 136.552 25.4477C136.599 25.4327 136.654 25.4159 136.714 25.3973C137.151 25.262 137.896 25.0315 138.548 24.7125C138.918 24.5314 139.296 24.3042 139.579 24.0212C139.865 23.7363 140.108 23.338 140.056 22.8429C140.004 22.3471 139.721 21.9843 139.381 21.7315C139.05 21.4853 138.637 21.3209 138.237 21.2035C137.629 21.0252 136.935 20.9269 136.428 20.8551C136.277 20.8337 136.143 20.8146 136.032 20.7964C132.673 20.2459 129.009 20.4907 125.589 21.101C123.471 21.479 121.355 21.8762 119.307 22.7451C119.071 22.8453 118.81 22.9486 118.531 23.0555C118.808 22.9024 119.089 22.748 119.373 22.5921C121.074 21.6575 122.878 20.6666 124.503 19.5522C126.846 17.9457 128.926 16.0159 129.921 13.475C130.346 12.3916 130.385 11.4606 129.771 10.8694C129.484 10.5935 129.112 10.4569 128.738 10.3962C128.362 10.3354 127.946 10.3443 127.525 10.3926C125.863 10.583 123.737 11.4364 122.629 11.9077C120.31 12.8938 118.107 13.988 115.944 15.2056C116.919 14.0794 117.81 12.8785 118.416 11.5729C119.125 10.0478 119.598 8.48812 119.732 6.86364C119.753 6.60585 119.762 6.36325 119.735 6.16766C119.722 6.07038 119.695 5.94464 119.628 5.82524C119.554 5.6929 119.423 5.55611 119.219 5.50315C119.035 5.45521 118.872 5.49786 118.768 5.53895C118.661 5.58129 118.563 5.64304 118.48 5.70391C118.312 5.8259 118.121 6.00346 117.911 6.21464C114.119 10.0283 110.399 13.963 107.996 18.6149C106.97 20.6022 105.928 22.7357 105.247 24.8523C105.219 24.9412 105.187 25.0362 105.155 25.1355C105.121 25.2365 105.086 25.3419 105.052 25.4498C104.257 23.7318 103.141 22.1387 102.008 20.6585C100.79 19.0657 99.1153 17.0201 97.0339 15.5468C94.942 14.0663 92.3961 13.1356 89.4728 13.8609C88.0368 14.2173 87.1174 14.8778 86.683 15.7902C86.2559 16.6875 86.361 17.6999 86.6814 18.631C87.0312 19.6483 87.6702 20.6649 88.3515 21.5195C86.6631 21.5526 84.9487 21.8276 83.395 22.3985C81.9616 22.9252 81.0341 23.6348 80.4299 24.565C79.837 25.4781 79.5917 26.5517 79.4175 27.7223C79.1927 29.2302 79.597 30.469 80.4186 31.4546C81.2248 32.4215 82.4091 33.1184 83.7142 33.6264C86.3225 34.6422 89.5957 34.9726 91.9132 35.0706C94.7133 35.1891 97.5969 35.0206 100.429 34.6399C96.2405 37.7869 92.6335 42.3063 91.7832 46.8796C91.6161 47.7796 91.6059 48.7286 92.007 49.507C92.4288 50.3258 93.2426 50.8409 94.457 50.9748C95.7265 51.115 97.0803 50.8166 98.3363 50.3601C99.5984 49.9011 100.804 49.267 101.789 48.6932C105.227 46.691 108.402 44.052 110.761 41.0172C110.735 41.1694 110.712 41.3208 110.692 41.4712C110.49 42.9788 110.39 44.8187 111.25 46.3006C111.813 47.2716 112.784 47.9725 113.846 48.4559C114.914 48.9416 116.12 49.2298 117.226 49.347C119.725 49.6119 123.017 49.6236 125.502 48.2292C126.728 47.5412 127.505 46.6158 127.904 45.5683C128.301 44.5284 128.31 43.4072 128.074 42.3385C127.488 39.6925 125.857 37.4321 123.812 35.5331C122.797 34.5901 121.672 33.7294 120.507 32.9478C121.221 33.1488 121.944 33.3372 122.677 33.5109C126.203 34.3467 129.774 34.5118 133.521 34.1491L133.578 34.1436C134.285 34.0753 135.711 33.9377 137.038 33.6186C137.719 33.4551 138.402 33.2374 138.959 32.9418C139.501 32.6539 140.019 32.2415 140.208 31.6417C140.343 31.2139 140.243 30.7857 140.078 30.4538C139.912 30.1197 139.653 29.8218 139.362 29.625C138.037 28.7277 136.317 28.0967 134.747 27.6746C133.293 27.2835 131.766 26.9997 130.21 26.8215ZM121.625 27.8507C121.625 27.8507 121.625 27.8507 121.625 27.8507C121.622 27.851 121.621 27.8512 121.621 27.851M112.599 29.036C112.595 29.0342 112.593 29.0332 112.592 29.0329C112.591 29.0326 112.593 29.0337 112.598 29.036C112.598 29.036 112.598 29.036 112.599 29.036ZM91.0619 22.7303C93.1211 24.3209 95.7388 25.6583 98.2981 26.6248C98.4445 26.6801 98.6528 26.7736 98.88 26.8758C98.9518 26.908 99.0257 26.941 99.0998 26.9743C99.4232 27.1181 99.7887 27.2751 100.157 27.4071C100.528 27.5405 100.882 27.6406 101.184 27.6799C101.191 27.6809 101.198 27.6817 101.205 27.6828C101.089 27.574 100.955 27.4564 100.809 27.3343C100.277 26.8902 99.676 26.4592 99.5007 26.3334C99.4834 26.3211 99.4703 26.3117 99.4617 26.3057C97.3701 24.791 95.1611 23.6463 92.476 22.9993C92.0214 22.8898 91.548 22.7996 91.0619 22.7303ZM110.944 18.8604C110.944 18.8604 110.945 18.8599 110.946 18.8592C110.945 18.8601 110.944 18.8605 110.944 18.8604Z" fill="#7F6AFF"/>
<path d="M115.84 35.9172C111.084 37.533 105.498 38.1793 104.066 35.2708C102.728 32.5006 102.82 27.6065 102.912 24.3747C102.912 23.6822 102.958 23.0358 102.958 22.4817L103.097 18.7882L99.4035 18.6497L99.2649 22.3894V22.4356C99.2649 22.9896 99.2649 23.5898 99.2188 24.2823C99.1727 25.4828 99.1727 26.8679 99.1727 28.2529C99.1266 31.3 97.7875 34.3475 96.5411 35.6402C95.9408 36.2402 95.4792 36.4249 94.3247 36.6558C87.9535 37.9949 83.5672 35.7786 81.9514 32.9622C82.2744 32.9161 82.6439 32.87 82.9669 32.87C94.6942 31.6234 96.6333 29.3148 97.0027 27.4682C97.1411 26.7754 97.1875 24.9749 94.6942 23.5898C91.2776 21.6968 83.9366 20.8658 80.5661 24.0054C78.8579 25.6213 77.8423 27.6065 77.6115 29.6381C76.6879 29.7303 75.8568 29.7765 75.0721 29.8228C75.4876 26.7293 75.2568 23.2666 73.3177 22.1124C70.8705 20.6349 64.5454 24.0515 62.3754 25.9445C60.113 27.9298 60.2054 29.592 60.6671 30.6537C61.3596 32.2236 63.2065 33.6086 70.2705 33.6547C70.1319 33.978 69.9933 34.255 69.855 34.5319C68.9314 36.2402 67.8234 37.1174 66.5767 37.1174C61.4057 37.1174 60.113 33.3317 58.8202 28.022C58.5894 27.0987 58.4047 26.2215 58.1277 25.4366C57.7122 24.0977 56.2811 23.4513 56.0039 23.3128C54.4342 22.6664 52.8181 23.2666 51.7565 24.8826C50.9254 26.1753 50.5559 27.699 50.3251 28.9917C50.1404 29.9151 50.0018 30.9309 49.9096 32.1775C49.8634 32.4545 49.8634 32.7314 49.8634 33.0547C49.8634 33.5625 49.8173 34.0241 49.6787 34.3475C49.494 34.763 49.1246 35.1783 48.6168 35.5016C45.9391 37.256 41.3681 37.5793 38.4595 36.9791C35.9662 36.471 34.9968 34.9014 34.6735 33.4239C38.1823 33.6086 44.2769 33.4703 47.4163 30.8848C48.709 29.8228 49.4018 28.4376 49.494 26.8679C49.6326 24.9749 48.3399 22.6202 44.323 22.2971C39.0598 21.8815 31.3955 25.0672 30.8877 31.1156C30.4722 36.0094 33.0577 39.6568 37.6745 40.5804C38.7826 40.8112 40.0292 40.9034 41.322 40.9034C44.5077 40.9034 48.0165 40.211 50.5559 38.5949C51.664 37.9024 52.4951 36.933 52.9567 35.871C53.3723 34.9014 53.4184 33.978 53.4645 33.1931C53.4645 32.9622 53.4645 32.7314 53.5109 32.5467C53.6031 31.4386 53.7417 30.5614 53.88 29.7303C54.0648 28.7609 54.2495 27.7912 54.665 27.0987C54.8036 27.6529 54.9883 28.299 55.1267 28.9456C56.1886 33.4239 57.9891 40.8573 66.4845 40.8573C69.9011 40.8573 72.7174 38.2257 74.1949 33.6086C75.349 33.5625 76.6418 33.4703 77.9807 33.3778C78.1193 33.7933 78.304 34.1627 78.4887 34.5783C80.6586 38.7335 86.5682 42.104 94.9711 40.3493C96.3564 40.0724 97.7413 39.6568 99.0802 38.2718C99.5882 37.7638 100.004 37.1638 100.419 36.471C100.465 36.6096 100.558 36.7483 100.604 36.933C101.943 39.6568 104.713 41.042 108.591 41.042C110.946 41.042 113.762 40.534 116.856 39.4721L115.84 35.9172ZM41.6914 26.083C44.2769 25.6213 45.8005 26.2215 45.9391 26.4985C45.9391 26.4985 45.9391 26.5446 45.9391 26.591C45.8927 27.1448 45.6619 27.6065 45.1541 28.022C43.3072 29.5456 38.8287 29.8689 35.2276 29.7303C36.4279 27.7912 39.152 26.4985 41.6914 26.083ZM71.3785 30.0073C66.7153 30.0537 64.9609 29.5456 64.3606 29.2687C65.3765 27.9298 69.5778 25.806 71.4247 25.4828C71.6094 26.3138 71.6555 28.0682 71.3785 30.0073ZM83.1055 26.7754C83.8444 26.083 85.4602 25.6675 87.3071 25.6675C87.7688 25.6675 88.2765 25.7136 88.7846 25.7598C90.8159 25.9906 92.2934 26.5446 93.032 26.9601C92.1548 27.4682 89.5693 28.5301 82.5978 29.2687C82.2283 29.3148 81.8589 29.3609 81.4897 29.4073C81.7206 28.4376 82.2744 27.5604 83.1055 26.7754Z" fill="#1B1D1F"/>
<path d="M24.6085 32.1002C25.6704 31.1307 26.4553 30.1149 26.9631 29.1916C29.133 25.3595 28.4866 21.3889 27.5633 19.6345L27.5172 19.5421C27.4247 19.3574 25.2548 15.9871 21.3304 15.9871C21.2843 15.9871 21.2381 15.9871 21.2381 15.9871C18.6064 16.0332 15.9747 17.603 13.3892 20.604V16.8643H9.69563V32.8852C9.55714 32.9313 9.41861 32.9774 9.28011 33.0238C5.03251 34.3165 0 36.7173 0 40.8725H3.69359C3.69359 39.5797 6.0944 37.9176 9.69563 36.7173V40.8725H13.3892V36.0709C16.6211 35.8401 19.1604 35.1937 21.1457 34.3165C23.5466 35.6093 26.7783 38.1023 26.7783 40.8725H30.4721C30.4721 36.8095 27.1478 33.8085 24.6085 32.1002ZM13.3892 27.0217C17.1751 20.7425 19.9453 19.7268 21.2381 19.6806C22.9464 19.6345 24.1468 21.2042 24.3314 21.4351C24.7932 22.3585 25.0701 24.9902 23.7312 27.3447C22.1153 30.2535 18.5141 31.9618 13.3431 32.3774V27.0217H13.3892Z" fill="#1B1D1F"/>
</g>
<defs>
<clipPath id="clip0_237_2174">
<rect width="140.961" height="60" fill="white"/>
</clipPath>
</defs>
</svg>
